<mxfile host="app.diagrams.net" agent="Mozilla/5.0 (Windows NT 10.0; Win64; x64) AppleWebKit/537.36 (KHTML, like Gecko) Chrome/134.0.0.0 Safari/537.36" version="26.1.0">
  <diagram name="Page-1" id="0f1rnujp0oxpeZLFkK2t">
    <mxGraphModel dx="1076" dy="592" grid="1" gridSize="10" guides="1" tooltips="1" connect="1" arrows="1" fold="1" page="1" pageScale="1" pageWidth="850" pageHeight="1100" math="0" shadow="0">
      <root>
        <mxCell id="0" />
        <mxCell id="1" parent="0" />
        <mxCell id="le8kYAC7GOsxLi1JXV00-31" style="rounded=0;orthogonalLoop=1;jettySize=auto;html=1;endArrow=none;startFill=0;" edge="1" parent="1" source="le8kYAC7GOsxLi1JXV00-27" target="le8kYAC7GOsxLi1JXV00-32">
          <mxGeometry relative="1" as="geometry">
            <mxPoint x="310" y="280" as="targetPoint" />
          </mxGeometry>
        </mxCell>
        <mxCell id="le8kYAC7GOsxLi1JXV00-27" value="Employees&lt;div&gt;EmployeeID, Name , Salary, employeeType, Contact no. Salary&lt;/div&gt;" style="rounded=0;whiteSpace=wrap;html=1;" vertex="1" parent="1">
          <mxGeometry x="110" y="150" width="400" height="60" as="geometry" />
        </mxCell>
        <mxCell id="le8kYAC7GOsxLi1JXV00-33" style="rounded=0;orthogonalLoop=1;jettySize=auto;html=1;entryX=0.553;entryY=0.056;entryDx=0;entryDy=0;entryPerimeter=0;endArrow=none;startFill=0;" edge="1" parent="1" source="le8kYAC7GOsxLi1JXV00-32" target="le8kYAC7GOsxLi1JXV00-36">
          <mxGeometry relative="1" as="geometry">
            <mxPoint x="190" y="340" as="targetPoint" />
          </mxGeometry>
        </mxCell>
        <mxCell id="le8kYAC7GOsxLi1JXV00-34" style="rounded=0;orthogonalLoop=1;jettySize=auto;html=1;endArrow=none;startFill=0;" edge="1" parent="1" source="le8kYAC7GOsxLi1JXV00-32" target="le8kYAC7GOsxLi1JXV00-37">
          <mxGeometry relative="1" as="geometry">
            <mxPoint x="305" y="360" as="targetPoint" />
          </mxGeometry>
        </mxCell>
        <mxCell id="le8kYAC7GOsxLi1JXV00-35" style="rounded=0;orthogonalLoop=1;jettySize=auto;html=1;endArrow=none;startFill=0;" edge="1" parent="1" source="le8kYAC7GOsxLi1JXV00-32" target="le8kYAC7GOsxLi1JXV00-38">
          <mxGeometry relative="1" as="geometry">
            <mxPoint x="420" y="340" as="targetPoint" />
          </mxGeometry>
        </mxCell>
        <mxCell id="le8kYAC7GOsxLi1JXV00-32" value="" style="ellipse;whiteSpace=wrap;html=1;aspect=fixed;" vertex="1" parent="1">
          <mxGeometry x="290" y="270" width="30" height="30" as="geometry" />
        </mxCell>
        <mxCell id="le8kYAC7GOsxLi1JXV00-36" value="Doctor&lt;div&gt;(Specialty, License no.)&lt;/div&gt;" style="rounded=0;whiteSpace=wrap;html=1;" vertex="1" parent="1">
          <mxGeometry x="70" y="370" width="140" height="60" as="geometry" />
        </mxCell>
        <mxCell id="le8kYAC7GOsxLi1JXV00-37" value="Nurses&lt;div&gt;(Certification, Shift)&lt;/div&gt;" style="rounded=0;whiteSpace=wrap;html=1;" vertex="1" parent="1">
          <mxGeometry x="235" y="410" width="140" height="60" as="geometry" />
        </mxCell>
        <mxCell id="le8kYAC7GOsxLi1JXV00-38" value="Administration Staff&lt;div&gt;(Department, Position)&lt;/div&gt;" style="rounded=0;whiteSpace=wrap;html=1;" vertex="1" parent="1">
          <mxGeometry x="420" y="330" width="140" height="60" as="geometry" />
        </mxCell>
        <mxCell id="le8kYAC7GOsxLi1JXV00-51" value="" style="verticalLabelPosition=bottom;verticalAlign=top;html=1;shape=mxgraph.basic.arc;startAngle=0.3;endAngle=0.1;rotation=-25;" vertex="1" parent="1">
          <mxGeometry x="220" y="310" width="40" height="30" as="geometry" />
        </mxCell>
        <mxCell id="le8kYAC7GOsxLi1JXV00-52" value="" style="verticalLabelPosition=bottom;verticalAlign=top;html=1;shape=mxgraph.basic.arc;startAngle=0.3;endAngle=0.1;rotation=-84;" vertex="1" parent="1">
          <mxGeometry x="285" y="340" width="40" height="30" as="geometry" />
        </mxCell>
        <mxCell id="le8kYAC7GOsxLi1JXV00-53" value="" style="verticalLabelPosition=bottom;verticalAlign=top;html=1;shape=mxgraph.basic.arc;startAngle=0.3;endAngle=0.1;rotation=-147;" vertex="1" parent="1">
          <mxGeometry x="350" y="290" width="40" height="30" as="geometry" />
        </mxCell>
      </root>
    </mxGraphModel>
  </diagram>
</mxfile>
